<?xml version="1.0" encoding="utf-8"?>
<!-- Generator: Adobe Illustrator 19.1.0, SVG Export Plug-In . SVG Version: 6.00 Build 0)  -->
<!DOCTYPE svg PUBLIC "-//W3C//DTD SVG 1.1//EN" "http://www.w3.org/Graphics/SVG/1.1/DTD/svg11.dtd">
<svg version="1.1" id="Layer_1" xmlns="http://www.w3.org/2000/svg" xmlns:xlink="http://www.w3.org/1999/xlink" x="0px" y="0px"
	 viewBox="0 0 47.7 48.1" style="enable-background:new 0 0 47.7 48.1;" xml:space="preserve">
<style type="text/css">
	.st0{fill:#000000;}
</style>
<g id="XMLID_1118_">
	<path id="XMLID_1124_" class="st0" d="M23.9,48.1C10.7,48.1,0,37.4,0,24.3S10.7,0.4,23.9,0.4s23.9,10.7,23.9,23.9
		S37,48.1,23.9,48.1z M23.9,2.4C11.8,2.4,2,12.2,2,24.3s9.8,21.9,21.9,21.9s21.9-9.8,21.9-21.9S35.9,2.4,23.9,2.4z"/>
	<rect id="XMLID_1123_" x="1" y="23.3" class="st0" width="45.7" height="2"/>
	<rect id="XMLID_1122_" x="22.9" y="1.4" class="st0" width="2" height="45.7"/>
	<g id="XMLID_1119_">
		<path id="XMLID_1121_" class="st0" d="M23.5,19.4c-6.3,0-12.4-3.1-17.9-9.3L7,8.8c5.3,5.8,10.9,8.7,16.8,8.6
			c9.7-0.2,16.8-8.5,16.8-8.6l1.5,1.3c-0.3,0.4-7.8,9.1-18.3,9.3C23.8,19.4,23.6,19.4,23.5,19.4z"/>
		<path id="XMLID_1120_" class="st0" d="M40.7,39.7c-5.3-5.8-11-8.7-16.8-8.6c-9.7,0.2-16.8,8.5-16.8,8.6l-1.5-1.3
			c0.3-0.4,7.8-9.1,18.3-9.3c6.5-0.1,12.6,3,18.3,9.3L40.7,39.7z"/>
	</g>
</g>
</svg>
