<?xml version="1.0" encoding="utf-8"?>
<!-- Generator: Adobe Illustrator 19.1.0, SVG Export Plug-In . SVG Version: 6.00 Build 0)  -->
<!DOCTYPE svg PUBLIC "-//W3C//DTD SVG 1.1//EN" "http://www.w3.org/Graphics/SVG/1.1/DTD/svg11.dtd">
<svg version="1.1" id="Layer_1" xmlns="http://www.w3.org/2000/svg" xmlns:xlink="http://www.w3.org/1999/xlink" x="0px" y="0px"
	 viewBox="0 0 48 48" style="enable-background:new 0 0 48 48;" xml:space="preserve">
<style type="text/css">
	.st0{fill:#000000;}
</style>
<g id="XMLID_112_">
	<path id="XMLID_122_" class="st0" d="M37.9,37.3c-5.6,0-10.1-4.5-10.1-10.1s4.5-10.1,10.1-10.1c5.6,0,10.1,4.5,10.1,10.1
		S43.5,37.3,37.9,37.3z M37.9,19.1c-4.5,0-8.1,3.6-8.1,8.1s3.6,8.1,8.1,8.1s8.1-3.6,8.1-8.1S42.4,19.1,37.9,19.1z"/>
	<path id="XMLID_119_" class="st0" d="M10.1,37.3C4.5,37.3,0,32.8,0,27.2s4.5-10.1,10.1-10.1c5.6,0,10.1,4.5,10.1,10.1
		S15.7,37.3,10.1,37.3z M10.1,19.1c-4.5,0-8.1,3.6-8.1,8.1s3.6,8.1,8.1,8.1s8.1-3.6,8.1-8.1S14.6,19.1,10.1,19.1z"/>
	<path id="XMLID_118_" class="st0" d="M11.1,27.8l-1.9-0.5l4.3-16.5c-0.9,0-2,0-2.7,0.5c-0.4,0.3-0.6,0.8-0.7,1.4l-2-0.1
		c0.1-1.2,0.6-2.2,1.4-2.9c1.9-1.5,5-0.9,5.4-0.8l1,0.2L11.1,27.8z"/>
	<path id="XMLID_115_" class="st0" d="M38.3,28.2H25.2c-0.3,0-0.6-0.1-0.8-0.4L13.1,13.5c-0.2-0.3-0.3-0.7-0.1-1.1
		c0.2-0.3,0.5-0.6,0.9-0.6h16.7c0.4,0,0.7,0.2,0.9,0.5l7.7,14.3c0.2,0.3,0.2,0.7,0,1C39,28,38.7,28.2,38.3,28.2z M25.7,26.2h11
		L30,13.9H16L25.7,26.2z"/>

		<rect id="XMLID_114_" x="27.9" y="7.8" transform="matrix(0.927 0.3751 -0.3751 0.927 8.6797 -9.5796)" class="st0" width="2" height="19.3"/>

		<rect id="XMLID_113_" x="31.5" y="5.6" transform="matrix(0.1787 0.9839 -0.9839 0.1787 35.2054 -24.9168)" class="st0" width="2" height="6.1"/>
</g>
</svg>
