<?xml version="1.0" encoding="utf-8"?>
<!-- Generator: Adobe Illustrator 19.1.0, SVG Export Plug-In . SVG Version: 6.00 Build 0)  -->
<!DOCTYPE svg PUBLIC "-//W3C//DTD SVG 1.1//EN" "http://www.w3.org/Graphics/SVG/1.1/DTD/svg11.dtd">
<svg version="1.1" id="Layer_1" xmlns="http://www.w3.org/2000/svg" xmlns:xlink="http://www.w3.org/1999/xlink" x="0px" y="0px"
	 viewBox="0 0 48.2 48.2" style="enable-background:new 0 0 48.2 48.2;" xml:space="preserve">
<style type="text/css">
	.st0{fill:#000000;}
</style>
<g id="XMLID_84_">
	<g id="XMLID_90_">
		<path id="XMLID_92_" class="st0" d="M18,25.6c-1.3,0-2.5-0.5-3.4-1.4L0.9,10.8c-1-1-1.2-2.7-0.3-3.9l4.2-5.8
			c0.4-0.6,1.1-1,1.8-1.1C7.3,0,8,0.2,8.6,0.7l13.7,13.4c2.1,2.1,2.4,5.8,0.6,8.2L22,23.5c-0.9,1.3-2.2,2-3.6,2.1
			C18.2,25.6,18.1,25.6,18,25.6z M6.8,2C6.8,2,6.8,2,6.8,2C6.7,2,6.5,2.1,6.4,2.3L2.2,8.1C1.9,8.5,2,9.1,2.3,9.4l13.7,13.4
			c0.6,0.6,1.4,0.9,2.2,0.9c0.8-0.1,1.6-0.5,2.2-1.3l0.9-1.2c1.2-1.7,1-4.2-0.4-5.6L7.2,2.2C7.1,2.1,7,2,6.8,2z"/>

			<rect id="XMLID_91_" x="16.5" y="33.8" transform="matrix(0.715 0.6991 -0.6991 0.715 34.0964 -14.1247)" class="st0" width="35.7" height="2"/>
	</g>
	<g id="XMLID_85_">
		<path id="XMLID_87_" class="st0" d="M30.3,25.6c-0.1,0-0.3,0-0.4,0c-1.4-0.1-2.7-0.9-3.6-2.1v0l-0.9-1.2c-1.8-2.5-1.5-6.1,0.6-8.2
			L39.7,0.7C40.2,0.2,40.9,0,41.6,0c0.7,0.1,1.4,0.4,1.8,1.1l4.2,5.8c0.9,1.2,0.7,2.9-0.3,3.9L33.7,24.2
			C32.7,25.1,31.5,25.6,30.3,25.6z M27.9,22.3c0.6,0.8,1.3,1.2,2.2,1.3c0.8,0.1,1.6-0.2,2.2-0.9L46,9.4c0.3-0.3,0.4-0.9,0.1-1.3
			l-4.2-5.8C41.7,2.1,41.6,2,41.4,2c-0.1,0-0.2,0-0.4,0.1L27.4,15.5c-1.4,1.4-1.6,3.9-0.4,5.6L27.9,22.3z"/>

			<rect id="XMLID_86_" x="12.9" y="16.9" transform="matrix(0.6993 0.7149 -0.7149 0.6993 29.0205 0.5399)" class="st0" width="2" height="35.7"/>
	</g>
</g>
</svg>
