<?xml version="1.0" encoding="utf-8"?>
<!-- Generator: Adobe Illustrator 19.1.0, SVG Export Plug-In . SVG Version: 6.00 Build 0)  -->
<!DOCTYPE svg PUBLIC "-//W3C//DTD SVG 1.1//EN" "http://www.w3.org/Graphics/SVG/1.1/DTD/svg11.dtd">
<svg version="1.1" id="Layer_1" xmlns="http://www.w3.org/2000/svg" xmlns:xlink="http://www.w3.org/1999/xlink" x="0px" y="0px"
	 viewBox="0 0 48 48.4" style="enable-background:new 0 0 48 48.4;" xml:space="preserve">
<style type="text/css">
	.st0{fill:#000000;}
</style>
<g id="XMLID_1096_">
	<path id="XMLID_1115_" class="st0" d="M24,48C10.8,48,0,37.2,0,24S10.8,0,24,0s24,10.8,24,24S37.2,48,24,48z M24,2
		C11.9,2,2,11.9,2,24s9.9,22,22,22s22-9.9,22-22S36.1,2,24,2z"/>
	<g id="XMLID_1106_">
		<g id="XMLID_1107_">
			<path id="XMLID_1114_" class="st0" d="M1.2,25l-0.4-2c0,0,0.8-0.2,2.1-0.3l0.2,2C1.9,24.8,1.2,25,1.2,25z"/>
			<path id="XMLID_1109_" class="st0" d="M27,40.9c-0.2-1.4-0.6-2.7-1-4l1.9-0.6c0.4,1.3,0.8,2.8,1,4.3L27,40.9z M24.4,33.2
				C23.7,32.1,22.9,31,22,30l1.4-1.4c1,1.1,1.9,2.3,2.7,3.6L24.4,33.2z M18.9,27.5c-1.1-0.7-2.3-1.3-3.6-1.7l0.7-1.9
				c1.4,0.5,2.8,1.2,4,1.9L18.9,27.5z M11.3,24.8c-1.3-0.2-2.7-0.3-4.1-0.3l0-2c1.5,0,3,0.1,4.4,0.4L11.3,24.8z"/>
			<path id="XMLID_1108_" class="st0" d="M29.5,47h-2c0-0.7,0-1.3,0-2l2-0.1C29.4,45.6,29.5,46.3,29.5,47z"/>
		</g>
	</g>
	<g id="XMLID_1097_">
		<g id="XMLID_1098_">
			<path id="XMLID_1105_" class="st0" d="M18.8,3.5c-0.1-1.3,0-2.1,0-2.1l2,0.2c0,0-0.1,0.7,0,1.9L18.8,3.5z"/>
			<path id="XMLID_1100_" class="st0" d="M40.8,24.8c-1.4-0.1-2.8-0.3-4.1-0.6l0.4-2c1.2,0.3,2.5,0.5,3.9,0.6L40.8,24.8z M32.7,23
				c-1.4-0.5-2.6-1.1-3.8-1.8l1-1.7c1.1,0.6,2.2,1.2,3.5,1.7L32.7,23z M25.5,18.6c-1-1-2-2.1-2.8-3.2l1.6-1.1c0.7,1.1,1.6,2,2.5,2.9
				L25.5,18.6z M20.7,11.7c-0.5-1.3-1-2.6-1.3-4l1.9-0.4c0.3,1.3,0.7,2.5,1.2,3.7L20.7,11.7z"/>
			<path id="XMLID_1099_" class="st0" d="M45,25v-2c0.6,0,1.3,0,2,0l0.1,2C46.3,25,45.7,25,45,25z"/>
		</g>
	</g>
</g>
</svg>
