<?xml version="1.0" encoding="utf-8"?>
<!-- Generator: Adobe Illustrator 19.1.0, SVG Export Plug-In . SVG Version: 6.00 Build 0)  -->
<!DOCTYPE svg PUBLIC "-//W3C//DTD SVG 1.1//EN" "http://www.w3.org/Graphics/SVG/1.1/DTD/svg11.dtd">
<svg version="1.1" id="Layer_1" xmlns="http://www.w3.org/2000/svg" xmlns:xlink="http://www.w3.org/1999/xlink" x="0px" y="0px"
	 viewBox="0 0 47 47.9" style="enable-background:new 0 0 47 47.9;" xml:space="preserve">
<style type="text/css">
	.st0{fill:#000000;}
</style>
<g id="XMLID_125_">
	<path id="XMLID_138_" class="st0" d="M35.2,28.3c-0.8,0-1.5-0.3-2-0.9c-0.1-0.2-3.7-3.9-2.7-8.7c0.3-1.7,1.2-3.3,2.5-4.8l-3.5-1.4
		c-0.9,1.1-2.1,1.9-3.3,2.5c-3,1.4-6.5,1.3-10.5-0.3c-1.4-0.6-2.2-2.2-1.6-3.7c0.3-0.7,0.8-1.3,1.5-1.6c0.7-0.3,1.5-0.3,2.2,0
		c2.5,1,4.5,1.1,6,0.4c1.7-0.8,2.3-2.4,2.4-2.6c1.2-2.6,3.2-2.5,4-2.4c0.1,0,0.1,0,0.2,0c0.1,0,0.3,0,0.4,0.1l9.3,4
		c0,0,0.1,0,0.1,0.1c0.2,0.1,1.7,1,2,2.8c0.2,1.1-0.1,2.2-1,3.3c-0.7,0.9-1.7,1.6-2.7,2.2c-1.2,0.8-2.4,1.5-2.6,2.6
		c-0.4,1.9,1.3,3.8,1.3,3.8c1.1,1.1,1,2.9-0.1,4C36.6,28,35.9,28.3,35.2,28.3z M29.1,10.3c0.1,0,0.3,0,0.4,0.1l5.6,2.3
		c0.3,0.1,0.5,0.4,0.6,0.8c0.1,0.3-0.1,0.7-0.3,0.9c-1.7,1.4-2.7,3-3,4.7c-0.7,3.8,2.2,7,2.2,7c0.3,0.3,0.9,0.4,1.2,0
		c0.3-0.3,0.4-0.9,0-1.3c-0.1-0.1-2.3-2.6-1.8-5.5c0.4-1.8,2-2.9,3.4-3.8c0.9-0.6,1.7-1.1,2.2-1.8c0.5-0.6,0.7-1.2,0.6-1.7
		c-0.1-0.8-0.9-1.3-1.1-1.4l-9-3.9c-0.1,0-0.1,0-0.2,0c-0.7,0-1.4-0.1-2,1.2c-0.1,0.4-1.1,2.5-3.4,3.6c-2,1-4.6,0.8-7.6-0.4
		c-0.2-0.1-0.4-0.1-0.6,0c-0.2,0.1-0.4,0.3-0.5,0.5c-0.2,0.5,0,1,0.5,1.1c3.5,1.4,6.5,1.5,8.9,0.3c1.2-0.6,2.2-1.4,3.1-2.5
		C28.5,10.5,28.8,10.3,29.1,10.3z"/>
	<path id="XMLID_135_" class="st0" d="M22.8,8.2c-2.1,0-3.9-1.8-3.9-3.9c0-2.2,1.7-3.9,3.9-3.9s3.9,1.8,3.9,3.9
		C26.7,6.4,24.9,8.2,22.8,8.2z M22.8,2.2c-1.1,0-1.9,0.9-1.9,2s0.9,2,1.9,2c1.1,0,1.9-0.9,1.9-2S23.8,2.2,22.8,2.2z"/>
	<path id="XMLID_134_" class="st0" d="M41.2,31.5H28.4c-0.5,0-1-0.4-1-1c0-0.5,0.4-1,1-1h12.8c0.5,0,1,0.4,1,1
		C42.2,31,41.8,31.5,41.2,31.5z"/>
	<path id="XMLID_131_" class="st0" d="M42.7,37.1H34c-0.5,0-1-0.4-1-1v-5.6c0-0.5,0.4-1,1-1h8.6c0.5,0,1,0.4,1,1v5.6
		C43.6,36.6,43.2,37.1,42.7,37.1z M35,35.1h6.7v-3.6H35V35.1z"/>
	<path id="XMLID_128_" class="st0" d="M46,47.3H34c-0.5,0-1-0.4-1-1V36.1c0-0.5,0.4-1,1-1H46c0.5,0,1,0.4,1,1v10.2
		C47,46.8,46.5,47.3,46,47.3z M35,45.3h10v-8.2H35V45.3z"/>
	<path id="XMLID_127_" class="st0" d="M18.1,42.6c0,0-0.1,0-0.1,0c-1.5,0-2.8-0.5-4.1-1c-1.2-0.4-2.2-0.9-3.3-0.9
		c-0.9,0-1.9,0.2-2.9,0.4c-0.6,0.1-1.2,0.3-1.9,0.4c-2.4,0.4-4.5-0.3-5.6-1.9c-0.3-0.4-0.2-1.1,0.2-1.4c0.4-0.3,1.1-0.2,1.4,0.2
		c1,1.3,2.7,1.3,3.7,1.1c0.6-0.1,1.1-0.2,1.7-0.4c1.1-0.3,2.3-0.6,3.5-0.5c1.4,0.1,2.7,0.6,3.9,1c1.2,0.5,2.3,0.9,3.4,0.9
		c1.3,0,2.6-0.5,3.9-1c1.2-0.5,2.5-1,3.9-1.1c2.2-0.2,4.5,0.6,6.2,2.2c0.4,0.4,0.4,1,0,1.4c-0.4,0.4-1,0.4-1.4,0
		c-1.3-1.2-3-1.9-4.7-1.7c-1.1,0.1-2.2,0.5-3.4,1C21.2,42,19.7,42.6,18.1,42.6z"/>
	<path id="XMLID_126_" class="st0" d="M18.1,47.3c0,0-0.1,0-0.1,0c-1.5,0-2.8-0.5-4.1-1c-1.1-0.4-2.2-0.9-3.3-0.9
		c-0.9,0-1.9,0.2-2.9,0.4c-0.6,0.1-1.2,0.3-1.9,0.4c-2.4,0.4-4.5-0.3-5.6-1.9c-0.3-0.4-0.2-1.1,0.2-1.4c0.4-0.3,1.1-0.2,1.4,0.2
		c1,1.3,2.7,1.3,3.7,1.1C6,44.1,6.6,44,7.2,43.9c1.1-0.3,2.3-0.6,3.5-0.5c1.4,0.1,2.7,0.6,3.9,1c1.2,0.5,2.3,0.9,3.4,0.9
		c1.3,0,2.5-0.5,3.9-1c1.2-0.5,2.5-1,3.9-1.1c2.2-0.2,4.5,0.6,6.2,2.2c0.4,0.4,0.4,1,0,1.4c-0.4,0.4-1,0.4-1.4,0
		c-1.3-1.2-3-1.9-4.7-1.7c-1.1,0.1-2.2,0.5-3.4,1C21.2,46.7,19.7,47.3,18.1,47.3z"/>
</g>
</svg>
