<?xml version="1.0" encoding="utf-8"?>
<!-- Generator: Adobe Illustrator 19.1.0, SVG Export Plug-In . SVG Version: 6.00 Build 0)  -->
<!DOCTYPE svg PUBLIC "-//W3C//DTD SVG 1.1//EN" "http://www.w3.org/Graphics/SVG/1.1/DTD/svg11.dtd">
<svg version="1.1" id="Layer_1" xmlns="http://www.w3.org/2000/svg" xmlns:xlink="http://www.w3.org/1999/xlink" x="0px" y="0px"
	 viewBox="0 0 45.4 48" style="enable-background:new 0 0 45.4 48;" xml:space="preserve">
<style type="text/css">
	.st0{fill:#000000;}
</style>
<g id="XMLID_99_">
	<path id="XMLID_100_" class="st0" d="M32.9,10.9c-0.5,0-1-0.1-1.5-0.2C30,10.2,28.8,9.3,28.1,8c-0.7-1.3-0.9-2.7-0.5-4.1
		c0.4-1.4,1.3-2.5,2.6-3.2C31.5,0,33-0.2,34.4,0.2c1.4,0.4,2.5,1.3,3.2,2.6c0.7,1.3,0.9,2.7,0.5,4.1v0c-0.4,1.4-1.3,2.5-2.6,3.2
		C34.7,10.6,33.8,10.9,32.9,10.9z M32.9,2c-0.6,0-1.1,0.1-1.7,0.4c-0.8,0.4-1.4,1.2-1.7,2.1c-0.3,0.9-0.2,1.8,0.3,2.6
		c0.4,0.8,1.2,1.4,2.1,1.7c0.9,0.3,1.8,0.2,2.6-0.3c0.8-0.4,1.4-1.2,1.7-2.1v0c0.3-0.9,0.2-1.8-0.3-2.6c-0.4-0.8-1.2-1.4-2.1-1.7
		C33.5,2,33.2,2,32.9,2z"/>
</g>
<path id="XMLID_96_" class="st0" d="M6.9,32.5c-0.3,0-0.7-0.1-1-0.2c-1.5-0.5-2-1.3-2.5-2.2c-0.5-1-2.9-7.1-3.2-8
	c-0.3-0.9-0.3-1.8,0.1-2.6c0.4-0.7,1-1.2,1.8-1.4c1.9-0.6,3.3,0.6,4,1.7c0.3,0.6,1.1,2.5,1.7,3.9c2.8-2.8,9.9-9.9,11.9-11.8
	c-0.9-0.5-3-1.1-3.9-0.9c-1.3,0.2-4.1,2-4.9,2.7c-1.2,1.1-3.4,1.4-5,0.1l-0.1-0.1C4.6,12,4.9,10,6.6,8.6c0.7-0.7,4.4-2.9,6.1-3.6
	c6.3-3.4,14.9,3.7,18.6,6.6c0.5,0.4,0.9,0.7,1.1,0.9c0.8,0.2,4.8-0.2,8.1-0.6l0.1,0l0.1,0c3.7,0.1,4.2,2.2,4.2,3.1
	c0.1,2.3-1.9,3.5-4,3.6c-0.1,0-7.9,0.5-10.4,0.1c-1.6-0.3-2.9-1.2-3.6-1.9l-1.6,1.3c1.9,0.6,4.7,1.4,5.9,1.9
	c1.2,0.5,5.1,2.4,8.2,3.9c1.8,0.9,3.3,1.6,4,2c1,0.5,1.8,1.3,2,2.3c0.2,0.8,0.1,1.7-0.3,2.4c-0.9,1.4-2.9,1.9-4.6,1.1l-0.1,0
	c-0.9-0.5-9.7-4.6-11.1-5.2c-1.5-0.6-9.2-2.9-10.6-3.2c-1.4,0.9-7.4,6.5-8.4,7.6C9.1,31.9,8,32.5,6.9,32.5z M3.1,19.9
	c-0.1,0-0.3,0-0.4,0.1c-0.3,0.1-0.5,0.2-0.6,0.4c-0.1,0.3-0.1,0.7,0,1c0.4,1.1,2.6,6.9,3,7.7c0.4,0.8,0.6,1,1.4,1.3
	c0.8,0.3,1.7-0.5,2.2-1c0.5-0.5,2.5-2.5,4.6-4.4c4.2-3.8,4.6-3.8,5.1-3.8c1,0,10.4,2.9,11.5,3.3c1.5,0.6,10.2,4.7,11.4,5.3
	c0.8,0.4,1.7,0.1,2-0.4c0.1-0.2,0.2-0.5,0.1-0.8c-0.1-0.4-0.5-0.8-1-1c-0.7-0.3-2.3-1.1-4.1-2c-3.1-1.5-6.9-3.4-8.1-3.9
	c-1.7-0.8-7.4-2.4-7.4-2.4L21,19l6-4.9l0.6,0.8c0,0,1.4,1.6,3.1,1.9c1.8,0.3,7.5,0.1,10-0.1c0.2,0,2.2-0.2,2.1-1.5
	c0-0.3,0-1.2-2.2-1.2c-1.4,0.2-7.7,0.9-9,0.4C31.3,14.2,31,14,30,13.2C26.9,10.7,18.6,4,13.5,6.8l-0.1,0c-1.6,0.7-5.1,2.9-5.5,3.3
	l-0.1,0.1c-0.5,0.4-1.1,1.3-0.6,2c0.9,0.7,1.9,0.2,2.3-0.1c0.9-0.8,4-2.9,5.9-3.2c1.4-0.2,5.6,0.7,6.3,2.3c0.3,0.6,0.1,1.3-0.4,1.7
	C20.2,13.9,8.2,25.9,8,26.1L7,27.1l-0.6-1.4c-0.6-1.6-1.8-4.4-2.1-5C4.2,20.4,3.8,19.9,3.1,19.9z"/>
<path id="XMLID_95_" class="st0" d="M19.9,48c-0.5,0-1-0.4-1-1V28.3c0-0.5,0.4-1,1-1c0.5,0,1,0.4,1,1V47C20.9,47.5,20.5,48,19.9,48z
	"/>
</svg>
