<?xml version="1.0" encoding="utf-8"?>
<!-- Generator: Adobe Illustrator 19.1.0, SVG Export Plug-In . SVG Version: 6.00 Build 0)  -->
<!DOCTYPE svg PUBLIC "-//W3C//DTD SVG 1.1//EN" "http://www.w3.org/Graphics/SVG/1.1/DTD/svg11.dtd">
<svg version="1.1" id="Layer_1" xmlns="http://www.w3.org/2000/svg" xmlns:xlink="http://www.w3.org/1999/xlink" x="0px" y="0px"
	 viewBox="0 0 47.9 47.8" style="enable-background:new 0 0 47.9 47.8;" xml:space="preserve">
<style type="text/css">
	.st0{fill:#000000;}
</style>
<g id="XMLID_66_">
	<path id="XMLID_71_" class="st0" d="M23.9,48.1C10.7,48.1,0,37.4,0,24.2C0,11,10.7,0.2,23.9,0.2S47.9,11,47.9,24.2
		C47.9,37.4,37.1,48.1,23.9,48.1z M23.9,2.4c-12,0-21.8,9.8-21.8,21.8c0,12,9.8,21.8,21.8,21.8s21.8-9.8,21.8-21.8
		C45.7,12.1,35.9,2.4,23.9,2.4z"/>
	<path id="XMLID_70_" class="st0" d="M13.6,45.1l-1.3-1.7c0.1-0.1,11.6-9.2,10.5-19.1l-0.1-0.7l0.7-0.3c0.6-0.3,13.8-6.9,24,1
		l-1.3,1.7c-8-6.2-18.4-2.3-21.1-1.1C25.7,35.6,14.1,44.7,13.6,45.1z"/>
	<path id="XMLID_69_" class="st0" d="M22.6,47.8l-1.1-1.8c16.5-10.5,14.1-24.2,14-24.4l2.1-0.4C37.7,21.9,40.3,36.6,22.6,47.8z"/>
	<path id="XMLID_68_" class="st0" d="M23.4,25.1c-11.9-7.3-11-20.8-10.9-21.3l2.1,0.2c0,0.1-0.9,12.7,9.9,19.4L23.4,25.1z"/>
	<path id="XMLID_67_" class="st0" d="M19.6,37.6C2.4,28.4,4.7,10.3,4.7,10.2l2.1,0.3c-0.1,0.7-2.1,16.8,13.8,25.2L19.6,37.6z"/>
	<path id="XMLID_73_" class="st0" d="M44.6,16.7c-12.5-10-28.4-1.4-28.6-1.4l-1-1.9c0.2-0.1,17.3-9.3,30.9,1.6L44.6,16.7z"/>
</g>
</svg>
