<?xml version="1.0" encoding="utf-8"?>
<!-- Generator: Adobe Illustrator 21.0.2, SVG Export Plug-In . SVG Version: 6.00 Build 0)  -->
<!DOCTYPE svg PUBLIC "-//W3C//DTD SVG 1.1//EN" "http://www.w3.org/Graphics/SVG/1.1/DTD/svg11.dtd">
<svg version="1.1" id="Layer_1" xmlns="http://www.w3.org/2000/svg" xmlns:xlink="http://www.w3.org/1999/xlink" x="0px" y="0px"
	 viewBox="0 0 33.5 26.1" style="enable-background:new 0 0 33.5 26.1;" xml:space="preserve">
<title>cal-prev-arrow</title>
<path d="M14.9,24.3c0-0.5-0.2-1-0.5-1.4l-8-8h25.4c1-0.1,1.8-1,1.7-2c-0.1-0.9-0.8-1.7-1.7-1.7H6.4l7.9-7.9c0.8-0.6,1-1.8,0.4-2.6
	s-1.8-1-2.6-0.4c-0.1,0.1-0.2,0.2-0.3,0.3L0.7,11.8c-0.1,0.1-0.2,0.2-0.2,0.3c-0.3,0.5-0.4,1.2-0.2,1.7c0.1,0.2,0.2,0.4,0.4,0.6l0,0
	l11.1,11.2c0.7,0.7,1.9,0.7,2.6,0C14.7,25.3,14.9,24.8,14.9,24.3z"/>
</svg>
