<svg id="Layer_1" data-name="Layer 1" xmlns="http://www.w3.org/2000/svg" viewBox="0 0 47.06 47.06"><defs><style>.cls-1{fill:#eb1010;fill-rule:evenodd;}</style></defs><title>delete</title><path class="cls-1" d="M46,37.59,60.42,52a2.4,2.4,0,0,1,0,3.39l-5.07,5.07a2.4,2.4,0,0,1-3.39,0L37.59,46,23.22,60.42a2.39,2.39,0,0,1-3.38,0l-5.07-5.07a2.4,2.4,0,0,1,0-3.39L29.13,37.59,14.76,23.22a2.39,2.39,0,0,1,0-3.38l5.08-5.07a2.39,2.39,0,0,1,3.38,0L37.59,29.13,52,14.76a2.4,2.4,0,0,1,3.39,0l5.07,5.07a2.39,2.39,0,0,1,0,3.38Z" transform="translate(-14.06 -14.06)"/></svg>