<svg id="Layer_1" data-name="Layer 1" xmlns="http://www.w3.org/2000/svg" viewBox="0 0 66.01 66.02"><defs><style>.cls-1{fill:#00c600;}</style></defs><title>edit-icon</title><path class="cls-1" d="M27.63,44.61l2.74,2.74-3.07.35ZM55.52,14.17l5.3,5.32-26,26-5.3-5.32ZM6.51,12h0a2.25,2.25,0,0,0-2,2.25v54a2.25,2.25,0,0,0,2.25,2.25h54A2.25,2.25,0,0,0,63,68.26V31.51a2.25,2.25,0,1,0-4.5,0V66H9V16.51H43.5a2.25,2.25,0,1,0,0-4.5h-37ZM59.76,9.93l5.3,5.32L64,16.3,58.71,11Zm0-5.44h0l-.23,0a2.26,2.26,0,0,0-1.34.66L24.23,39.1a2.27,2.27,0,0,0-.66,1.34L22.52,50A2.25,2.25,0,0,0,25,52.47l9.54-1.06a2.26,2.26,0,0,0,1.36-.63L69.84,16.84a2.25,2.25,0,0,0,0-3.19L61.35,5.17A2.25,2.25,0,0,0,59.74,4.49Z" transform="translate(-4.5 -4.49)"/></svg>