<svg xmlns="http://www.w3.org/2000/svg" xmlns:xlink="http://www.w3.org/1999/xlink" version="1.1" x="0px" y="0px" viewBox="0 0 100 100" style="enable-background:new 0 0 100 100;" xml:space="preserve"><style type="text/css">
	.st0{fill:none;stroke:#000000;stroke-width:2;stroke-miterlimit:10;}
</style><g><polygon points="47,10 47,5 43,5 43,10 43,15 47,15  "></polygon><polygon points="67,10 67,5 63,5 63,10 63,15 67,15  "></polygon><path d="M78,10v5v1h-1h-4h-1v-1v-5h-4v5v1h-1h-4h-1v-1v-5h-4v5v1h-1h-4h-1v-1v-5h-4v5v1h-1h-4h-1v-1v-5h-4v5v1h-1h-4h-1v-1v-5h-4v5   v1h-1h-4h-1v-1v-5h-2v85h60V10H78z M76,91H24V20h52V91z"></path><polygon points="77,10 77,5 73,5 73,10 73,15 77,15  "></polygon><polygon points="27,10 27,5 23,5 23,10 23,15 27,15  "></polygon><polygon points="57,10 57,5 53,5 53,10 53,15 57,15  "></polygon><polygon points="37,10 37,5 33,5 33,10 33,15 37,15  "></polygon></g></svg>