<?xml version="1.0" encoding="utf-8"?>
<!-- Generator: Adobe Illustrator 19.1.0, SVG Export Plug-In . SVG Version: 6.00 Build 0)  -->
<!DOCTYPE svg PUBLIC "-//W3C//DTD SVG 1.1//EN" "http://www.w3.org/Graphics/SVG/1.1/DTD/svg11.dtd">
<svg version="1.1" id="Layer_1" xmlns="http://www.w3.org/2000/svg" xmlns:xlink="http://www.w3.org/1999/xlink" x="0px" y="0px"
	 viewBox="0 0 48.4 48.4" style="enable-background:new 0 0 48.4 48.4;" xml:space="preserve">
<style type="text/css">
	.st0{fill:#00FF00;}
</style>
<g id="XMLID_1076_">
	<path id="XMLID_1093_" class="st0" d="M24.2,48.4C10.9,48.4,0,37.6,0,24.2S10.9,0,24.2,0s24.2,10.9,24.2,24.2S37.6,48.4,24.2,48.4z
		 M24.2,2C12,2,2,12,2,24.2s10,22.2,22.2,22.2s22.2-10,22.2-22.2S36.4,2,24.2,2z"/>
	<path id="XMLID_1092_" class="st0" d="M9.8,42.4l-1.6-1.3c6.7-8.1,8.7-16.3,6.1-24.2c-2-5.9-5.9-9.4-6-9.5l1.3-1.5
		C9.8,6.1,26.9,21.5,9.8,42.4z"/>
	<path id="XMLID_1091_" class="st0" d="M38.6,42.4C21.5,21.5,38.6,6.1,38.8,5.9l1.3,1.5C39.4,8,24.3,21.8,40.2,41.1L38.6,42.4z"/>
	
		<rect id="XMLID_1090_" x="12.5" y="9" transform="matrix(0.4425 0.8968 -0.8968 0.4425 18.5202 -5.2975)" class="st0" width="2" height="6.5"/>
	
		<rect id="XMLID_1089_" x="14.7" y="12.7" transform="matrix(0.3136 0.9496 -0.9496 0.3136 25.955 -3.9297)" class="st0" width="2" height="6.6"/>
	
		<rect id="XMLID_1088_" x="15.7" y="17" transform="matrix(0.1739 0.9848 -0.9848 0.1739 33.7444 0.3389)" class="st0" width="2" height="6.6"/>
	
		<rect id="XMLID_1087_" x="13.4" y="23.1" transform="matrix(0.9996 2.775077e-02 -2.775077e-02 0.9996 0.6766 -0.4552)" class="st0" width="6.7" height="2"/>
	
		<rect id="XMLID_1086_" x="13.3" y="27.1" transform="matrix(0.9578 0.2875 -0.2875 0.9578 8.7939 -3.6053)" class="st0" width="6.7" height="2"/>
	
		<rect id="XMLID_1085_" x="11.9" y="30.7" transform="matrix(0.9135 0.4068 -0.4068 0.9135 14.2102 -3.5045)" class="st0" width="6.8" height="2"/>
	
		<rect id="XMLID_1084_" x="10.2" y="34.7" transform="matrix(0.7726 0.6348 -0.6348 0.7726 25.7631 -0.4556)" class="st0" width="6.7" height="2"/>
	
		<rect id="XMLID_1083_" x="32" y="11.2" transform="matrix(0.8969 0.4423 -0.4423 0.8969 9.0522 -14.3259)" class="st0" width="6.5" height="2"/>
	
		<rect id="XMLID_1082_" x="29.8" y="15" transform="matrix(0.9495 0.3137 -0.3137 0.9495 6.6837 -9.5658)" class="st0" width="6.6" height="2"/>
	
		<rect id="XMLID_1081_" x="28.8" y="19.3" transform="matrix(0.9848 0.1738 -0.1738 0.9848 4.0124 -5.2682)" class="st0" width="6.6" height="2"/>
	
		<rect id="XMLID_1080_" x="31" y="20.8" transform="matrix(2.782126e-02 0.9996 -0.9996 2.782126e-02 55.2732 -8.5359)" class="st0" width="2" height="6.7"/>
	
		<rect id="XMLID_1079_" x="31.1" y="24.8" transform="matrix(0.2875 0.9578 -0.9578 0.2875 49.8121 -10.6947)" class="st0" width="2" height="6.7"/>
	
		<rect id="XMLID_1078_" x="32.4" y="28.3" transform="matrix(0.4067 0.9135 -0.9135 0.4067 48.7568 -11.7399)" class="st0" width="2" height="6.8"/>
	
		<rect id="XMLID_1077_" x="34.2" y="32.4" transform="matrix(0.6349 0.7726 -0.7726 0.6349 40.4832 -14.1824)" class="st0" width="2" height="6.7"/>
</g>
</svg>
