<?xml version="1.0" encoding="utf-8"?>
<!-- Generator: Adobe Illustrator 19.1.0, SVG Export Plug-In . SVG Version: 6.00 Build 0)  -->
<!DOCTYPE svg PUBLIC "-//W3C//DTD SVG 1.1//EN" "http://www.w3.org/Graphics/SVG/1.1/DTD/svg11.dtd">
<svg version="1.1" id="Layer_1" xmlns="http://www.w3.org/2000/svg" xmlns:xlink="http://www.w3.org/1999/xlink" x="0px" y="0px"
	 viewBox="0 0 47.4 48" style="enable-background:new 0 0 47.4 48;" xml:space="preserve">
<style type="text/css">
	.st0{fill:#00FF00;}
</style>
<g id="XMLID_150_">
	<g id="XMLID_158_">
		<path id="XMLID_162_" class="st0" d="M5.8,15.8H3.7c-2,0-3.7-1.7-3.7-3.7V4.2c0-2,1.7-3.7,3.7-3.7h2.1c2,0,3.7,1.7,3.7,3.7v7.9
			C9.5,14.2,7.9,15.8,5.8,15.8z M3.7,2.5C2.7,2.5,2,3.2,2,4.2v7.9c0,0.9,0.8,1.7,1.7,1.7h2.1c0.9,0,1.7-0.8,1.7-1.7V4.2
			c0-0.9-0.8-1.7-1.7-1.7H3.7z"/>
		<path id="XMLID_159_" class="st0" d="M43.7,15.8h-2.1c-2,0-3.7-1.7-3.7-3.7V4.2c0-2,1.7-3.7,3.7-3.7h2.1c2,0,3.7,1.7,3.7,3.7v7.9
			C47.4,14.2,45.7,15.8,43.7,15.8z M41.6,2.5c-0.9,0-1.7,0.8-1.7,1.7v7.9c0,0.9,0.8,1.7,1.7,1.7h2.1c0.9,0,1.7-0.8,1.7-1.7V4.2
			c0-0.9-0.8-1.7-1.7-1.7H41.6z"/>
	</g>
	<path id="XMLID_144_" class="st0" d="M37.9,9.2H9.5c-0.5,0-1-0.4-1-1v0c0-0.5,0.4-1,1-1h28.3c0.5,0,1,0.4,1,1v0
		C38.8,8.7,38.4,9.2,37.9,9.2z"/>
	<path id="XMLID_154_" class="st0" d="M23.7,18c-2.3,0-4.2-1.9-4.2-4.3s1.9-4.3,4.2-4.3s4.2,1.9,4.2,4.3S26,18,23.7,18z M23.7,11.3
		c-1.2,0-2.2,1-2.2,2.3s1,2.3,2.2,2.3s2.2-1,2.2-2.3S24.9,11.3,23.7,11.3z"/>
	<path id="XMLID_151_" class="st0" d="M14.6,47.9c-1.2,0-2.3-1-2.4-2.3L11,36.8c-0.1-1.1,0.4-2.2,1.3-2.7l6-3.3
		c0.3-0.2,0.5-0.5,0.5-0.9v-5.1c0-0.2-0.1-0.4-0.2-0.6l-7.6-9.8c-0.9-1.1-0.7-2.7,0.3-3.6c0.5-0.5,1.2-0.7,1.8-0.7
		c0.7,0,1.3,0.4,1.7,0.9l6.9,8.9c0.2,0.2,0.5,0.4,0.8,0.4h2.4c0.3,0,0.6-0.1,0.8-0.4l7.1-8.9c0.4-0.5,1.1-0.9,1.7-0.9
		c0.7,0,1.3,0.2,1.8,0.7c1,1,1.1,2.6,0.2,3.6l-7.6,9.6c-0.1,0.2-0.2,0.4-0.2,0.6v5.2c0,0.4,0.2,0.7,0.5,0.9l6,3.3
		c0.9,0.5,1.5,1.6,1.3,2.7l-1.2,8.8c-0.2,1.4-1.4,2.5-2.8,2.2c-1.3-0.2-2.3-1.5-2.1-3l0.8-6.3c0.1-0.4-0.1-0.8-0.5-1l-5.4-3
		c-0.1-0.1-0.3-0.1-0.5-0.1h-2.1c-0.2,0-0.3,0-0.5,0.1l-5.4,3c-0.4,0.2-0.6,0.6-0.5,1l0.8,6.3c0.2,1.4-0.7,2.8-2.1,3
		C14.9,47.9,14.7,47.9,14.6,47.9L14.6,47.9z M12.8,12.1c-0.1,0-0.2,0-0.3,0.1c-0.3,0.2-0.3,0.7-0.1,1l8.1,10.3
		c0.1,0.2,0.2,0.4,0.2,0.6v7c0,0.4-0.2,0.7-0.5,0.9l-7,3.9c-0.2,0.1-0.3,0.4-0.3,0.7l1.2,8.8c0,0.3,0.3,0.5,0.5,0.5h0
		c0.3-0.1,0.5-0.4,0.5-0.8l-1-7.7c-0.1-0.4,0.1-0.8,0.5-1l7.1-3.9c0.1-0.1,0.3-0.1,0.5-0.1h3.1c0.2,0,0.3,0,0.5,0.1l7.1,3.9
		c0.4,0.2,0.6,0.6,0.5,1l-1,7.7c0,0.4,0.2,0.7,0.4,0.8c0.2,0,0.5-0.2,0.5-0.5l1.2-8.8c0-0.3-0.1-0.6-0.3-0.7l-7-3.9
		c-0.3-0.2-0.5-0.5-0.5-0.9V24c0-0.2,0.1-0.4,0.2-0.6l8.1-10.2c0.2-0.3,0.2-0.8-0.1-1c-0.1-0.1-0.2-0.1-0.3-0.1
		c-0.1,0-0.2,0.1-0.3,0.2l-7.7,9.7c-0.2,0.2-0.5,0.4-0.8,0.4h-4.3c-0.3,0-0.6-0.1-0.8-0.4l-7.5-9.7C13.1,12.1,13,12.1,12.8,12.1
		C12.8,12.1,12.8,12.1,12.8,12.1z"/>
</g>
</svg>
