<?xml version="1.0" encoding="utf-8"?>
<!-- Generator: Adobe Illustrator 19.1.0, SVG Export Plug-In . SVG Version: 6.00 Build 0)  -->
<!DOCTYPE svg PUBLIC "-//W3C//DTD SVG 1.1//EN" "http://www.w3.org/Graphics/SVG/1.1/DTD/svg11.dtd">
<svg version="1.1" id="Layer_1" xmlns="http://www.w3.org/2000/svg" xmlns:xlink="http://www.w3.org/1999/xlink" x="0px" y="0px"
	 viewBox="0 0 47.7 48" style="enable-background:new 0 0 47.7 48;" xml:space="preserve">
<style type="text/css">
	.st0{fill:#00FF00;}
</style>
<g id="XMLID_2_">
	<path id="XMLID_11_" class="st0" d="M11.1,47.8c-3.1,0-6-0.5-8.8-1.6c-0.2-0.1-0.5-0.2-0.6-0.4c-0.1-0.1-0.1-0.2-0.2-0.3
		c-4-10.6-0.1-24.4,9.8-34.3c9.9-9.9,23.6-13.9,34.1-9.8c0.2,0.1,0.5,0.2,0.6,0.4c0.1,0.1,0.1,0.2,0.1,0.3c4,10.6,0.1,24.4-9.8,34.3
		C29.1,43.7,19.7,47.8,11.1,47.8z M3.3,44.4c9.8,3.6,22.4-0.2,31.7-9.5c9.2-9.3,13-22,9.4-31.9C34.6-0.5,22,3.3,12.8,12.6
		C3.5,21.9-0.2,34.6,3.3,44.4z"/>
	<path id="XMLID_10_" class="st0" d="M47,12.7c-3.2,0-6.3-1.3-8.6-3.6C36.2,6.9,35,4,34.9,1l2-0.1c0.1,2.6,1.2,5,3,6.8
		c1.9,1.9,4.5,3,7.2,3V12.7z"/>
	<path id="XMLID_9_" class="st0" d="M11.2,46.7c-0.1-2.6-1.2-5-3-6.8c-1.9-1.9-4.5-3-7.2-3v-2c3.2,0,6.3,1.3,8.6,3.6
		c2.2,2.2,3.4,5.1,3.5,8.2L11.2,46.7z"/>
	
		<rect id="XMLID_8_" x="22.9" y="12.9" transform="matrix(0.7093 0.7049 -0.7049 0.7093 23.6852 -9.911)" class="st0" width="2" height="21.7"/>
	<g id="XMLID_3_">
		
			<rect id="XMLID_7_" x="24.6" y="18.2" transform="matrix(0.7049 0.7093 -0.7093 0.7049 21.9956 -14.479)" class="st0" width="7.7" height="2"/>
		
			<rect id="XMLID_6_" x="21.5" y="21.2" transform="matrix(0.7049 0.7093 -0.7093 0.7049 23.2624 -11.434)" class="st0" width="7.7" height="2"/>
		
			<rect id="XMLID_5_" x="18.5" y="24.3" transform="matrix(0.7049 0.7093 -0.7093 0.7049 24.5293 -8.3891)" class="st0" width="7.7" height="2"/>
		
			<rect id="XMLID_4_" x="15.5" y="27.3" transform="matrix(0.7048 0.7094 -0.7094 0.7048 25.7978 -5.3437)" class="st0" width="7.7" height="2"/>
	</g>
</g>
</svg>
