<?xml version="1.0" encoding="utf-8"?>
<!-- Generator: Adobe Illustrator 19.1.0, SVG Export Plug-In . SVG Version: 6.00 Build 0)  -->
<!DOCTYPE svg PUBLIC "-//W3C//DTD SVG 1.1//EN" "http://www.w3.org/Graphics/SVG/1.1/DTD/svg11.dtd">
<svg version="1.1" id="Layer_1" xmlns="http://www.w3.org/2000/svg" xmlns:xlink="http://www.w3.org/1999/xlink" x="0px" y="0px"
	 viewBox="0 0 39.9 48.2" style="enable-background:new 0 0 39.9 48.2;" xml:space="preserve">
<style type="text/css">
	.st0{fill:#00FF00;}
</style>
<g id="XMLID_49_">
	<path id="XMLID_55_" class="st0" d="M19.4,36c-4.1,0-7.5-3.4-7.5-7.5s3.4-7.5,7.5-7.5s7.5,3.4,7.5,7.5S23.5,36,19.4,36z M19.4,23.1
		c-3,0-5.4,2.4-5.4,5.4s2.4,5.4,5.4,5.4c3,0,5.4-2.4,5.4-5.4S22.3,23.1,19.4,23.1z"/>
	<path id="XMLID_52_" class="st0" d="M18.3,48.1c-0.1-2-0.9-7.4-3.7-8.9l-3.5-1.9h16.4L24,39.2c-2.7,1.5-3.6,6.9-3.6,8.9L18.3,48.1z
		 M17.8,39.3c0.7,1,1.2,2.1,1.6,3.2c0.4-1.1,0.9-2.3,1.6-3.2H17.8z"/>
	<path id="XMLID_51_" class="st0" d="M12.9,32.1C4.9,30.6-0.8,25.7,0.1,20.9c0.4-2.4,2.4-4.3,5.6-5.3c3-1,6.7-1.2,10.4-0.5
		c8.1,1.5,13.7,6.4,12.9,11.2c-0.3,1.4-1.1,2.6-2.3,3.7l-1.3-1.6c0.9-0.7,1.4-1.5,1.6-2.4c0.6-3.5-4.5-7.5-11.2-8.8
		c-3.4-0.6-6.7-0.5-9.4,0.4c-2.4,0.8-3.9,2.2-4.2,3.8c-0.6,3.5,4.5,7.5,11.2,8.8L12.9,32.1z"/>
	
		<rect id="XMLID_50_" x="32.4" y="-0.5" transform="matrix(0.9174 0.3979 -0.3979 0.9174 8.0875 -12.2084)" class="st0" width="2.1" height="27.8"/>
</g>
</svg>
