<?xml version="1.0" encoding="utf-8"?>
<!-- Generator: Adobe Illustrator 19.1.0, SVG Export Plug-In . SVG Version: 6.00 Build 0)  -->
<!DOCTYPE svg PUBLIC "-//W3C//DTD SVG 1.1//EN" "http://www.w3.org/Graphics/SVG/1.1/DTD/svg11.dtd">
<svg version="1.1" id="Layer_1" xmlns="http://www.w3.org/2000/svg" xmlns:xlink="http://www.w3.org/1999/xlink" x="0px" y="0px"
	 viewBox="0 0 48 48.2" style="enable-background:new 0 0 48 48.2;" xml:space="preserve">
<style type="text/css">
	.st0{fill:#00FF00;}
</style>
<g id="XMLID_254_">
	<path id="XMLID_259_" class="st0" d="M28,48H1c-0.3,0-0.6-0.1-0.8-0.4C0,47.4,0,47,0,46.7l4.6-16.2c0.1-0.3,0.4-0.6,0.7-0.7
		c0.3-0.1,0.7,0,0.9,0.2c4,3.6,7.9,5.1,11.6,4.5c6.3-1.1,10.2-8.3,10.2-8.4L38.8,2.9c0.6-1.3,1.6-2.2,2.9-2.6
		C43-0.2,44.2,0,45.4,0.6c2.3,1.3,3.3,4.3,2.1,6.9L31.3,42.4c-0.1,0.2-0.2,0.4-0.3,0.5l-2.1,4.5C28.7,47.8,28.3,48,28,48z M2.3,46
		h25l1.9-4c0,0,0-0.1,0.1-0.1c0.1-0.1,0.1-0.2,0.2-0.4L45.7,6.6c0.7-1.6,0.2-3.5-1.3-4.3l0,0c-0.6-0.3-1.4-0.4-2-0.2
		c-0.7,0.2-1.4,0.8-1.7,1.6L29.9,27c-0.2,0.4-4.3,8.2-11.6,9.5c-3.9,0.7-8-0.6-12.1-3.9L2.3,46z"/>
	
		<rect id="XMLID_258_" x="33.9" y="13.2" transform="matrix(0.4323 0.9017 -0.9017 0.4323 34.954 -27.0473)" class="st0" width="10.1" height="2"/>
	
		<rect id="XMLID_257_" x="31.4" y="18.9" transform="matrix(0.4323 0.9017 -0.9017 0.4323 38.6321 -21.5704)" class="st0" width="10.1" height="2"/>
	
		<rect id="XMLID_256_" x="28.7" y="25" transform="matrix(0.4322 0.9018 -0.9018 0.4322 42.5415 -15.6426)" class="st0" width="10.1" height="2"/>
	
		<rect id="XMLID_255_" x="36.6" y="7.9" transform="matrix(0.4323 0.9017 -0.9017 0.4323 31.6696 -32.4865)" class="st0" width="10.1" height="2"/>
</g>
</svg>
