<?xml version="1.0" encoding="utf-8"?>
<!-- Generator: Adobe Illustrator 19.1.0, SVG Export Plug-In . SVG Version: 6.00 Build 0)  -->
<!DOCTYPE svg PUBLIC "-//W3C//DTD SVG 1.1//EN" "http://www.w3.org/Graphics/SVG/1.1/DTD/svg11.dtd">
<svg version="1.1" id="Layer_1" xmlns="http://www.w3.org/2000/svg" xmlns:xlink="http://www.w3.org/1999/xlink" x="0px" y="0px"
	 viewBox="0 0 48 48" style="enable-background:new 0 0 48 48;" xml:space="preserve">
<style type="text/css">
	.st0{fill:#00FF00;}
</style>
<g id="XMLID_103_">
	<path id="XMLID_109_" class="st0" d="M39.4,17.7c-3.1,0-5.7-2.6-5.7-5.7s2.6-5.7,5.7-5.7c3.1,0,5.7,2.6,5.7,5.7
		S42.5,17.7,39.4,17.7z M39.4,8.3c-2,0-3.7,1.7-3.7,3.7c0,2,1.7,3.7,3.7,3.7c2,0,3.7-1.7,3.7-3.7C43.1,10,41.4,8.3,39.4,8.3z"/>
	<path id="XMLID_104_" class="st0" d="M3,44.3c-1,0-2-0.5-2.5-1.4c-0.9-1.4-0.5-3.3,0.9-4.2c0.5-0.3,11.8-8,9.3-20
		c-0.3-1.2,0.2-2.4,1.2-3.1c1.2-1.1,3-1.8,5.4-2.3c0.5-0.1,1.1-0.2,1.7-0.2l7.1-1c-0.4-0.9-1-1.8-1.9-2.2c-1.7-0.7-4.5,0.6-5.5,1.4
		c-1.4,1-3.2,0.7-4.2-0.7c-0.5-0.7-0.7-1.5-0.5-2.3s0.6-1.5,1.2-2c0.2-0.2,6.1-4.4,11.5-2C30.2,6,32.4,9.9,33.2,16
		c0,0.1,0,0.2,0,0.3c0,1.5,0.7,5,2.5,6c1.5,0.8,4.2,0.1,7.6-2c0.7-0.4,1.5-0.6,2.3-0.4c0.8,0.2,1.5,0.7,1.9,1.4l0,0
		c0.4,0.7,0.6,1.5,0.4,2.3s-0.7,1.5-1.4,1.9c-5.5,3.4-10.1,4.1-13.7,2.1c-2-1.1-3.6-3-4.6-5.7l-5,0.4c4.1,4.4,5.4,7.8,4.1,10.3
		c-0.9,1.8-2.7,2.7-5.5,2.7c-2,0-4.6-0.4-8.1-1.4c-3.6,6.1-8.9,9.6-9.1,9.8C4.2,44.1,3.6,44.3,3,44.3z M17.6,15.3
		c-2,0.4-3.5,1-4.4,1.8L13,17.3c-0.4,0.2-0.5,0.7-0.5,1.1C15.4,31.6,3,40.1,2.5,40.4c-0.5,0.3-0.6,1-0.3,1.4c0.3,0.5,1,0.6,1.4,0.3
		c0.2-0.1,5.5-3.7,8.8-9.8l0.4-0.7l0.8,0.2c3.7,1,6.4,1.5,8.4,1.5c2.6,0,3.3-0.8,3.7-1.6c0.9-1.8-0.9-5.2-5.3-9.5l-1.5-1.5l10.9-0.9
		l0.2,0.8c0.8,2.5,2.1,4.3,3.9,5.3c2.9,1.6,6.9,0.9,11.7-2.1c0.2-0.1,0.4-0.4,0.5-0.6s0-0.5-0.1-0.8l0,0c-0.1-0.2-0.4-0.4-0.6-0.5
		c-0.3-0.1-0.5,0-0.8,0.1c-4.2,2.6-7.4,3.2-9.6,2c-3.4-1.8-3.6-7.7-3.6-7.8c0,0,0-0.1,0-0.1c-0.7-5.4-2.5-8.8-5.5-10
		c-4.4-1.9-9.3,1.7-9.5,1.8c-0.2,0.2-0.4,0.4-0.4,0.7c0,0.3,0,0.5,0.2,0.8c0.3,0.5,1,0.6,1.4,0.2c1.2-0.8,4.8-2.8,7.5-1.6
		c1.5,0.7,2.7,2.2,3.4,4.5l0.4,1.1l-9.5,1.3C18.7,15.2,18.1,15.2,17.6,15.3L17.6,15.3z M21.9,31.4c-1.3,0-3.5-0.3-7.2-1.3l-1-0.3
		l0.3-1c0.7-2,1-4.1,1.1-6.2l0-2.2l1.6,1.5c3,2.7,6.4,6.3,7,8.2l0.4,1.1l-1.1,0.2C22.7,31.3,22.3,31.4,21.9,31.4z M16.2,28.4
		c2.3,0.6,3.9,0.8,4.8,0.9c-0.8-1.1-2.2-2.7-4.1-4.6C16.8,26,16.5,27.2,16.2,28.4z"/>
</g>
</svg>
