<?xml version="1.0" encoding="utf-8"?>
<!-- Generator: Adobe Illustrator 19.1.0, SVG Export Plug-In . SVG Version: 6.00 Build 0)  -->
<!DOCTYPE svg PUBLIC "-//W3C//DTD SVG 1.1//EN" "http://www.w3.org/Graphics/SVG/1.1/DTD/svg11.dtd">
<svg version="1.1" id="Layer_1" xmlns="http://www.w3.org/2000/svg" xmlns:xlink="http://www.w3.org/1999/xlink" x="0px" y="0px"
	 viewBox="0 0 48 48.2" style="enable-background:new 0 0 48 48.2;" xml:space="preserve">
<style type="text/css">
	.st0{fill:#00FF00;}
</style>
<g id="XMLID_14_">
	<path id="XMLID_46_" class="st0" d="M24,48C10.8,48,0,37.2,0,24S10.8,0,24,0s24,10.8,24,24S37.2,48,24,48z M24,2
		C11.9,2,2,11.9,2,24s9.9,22,22,22s22-9.9,22-22S36.1,2,24,2z"/>
	<g id="XMLID_41_">
		<polygon id="XMLID_45_" class="st0" points="17.1,8.2 11.1,14.8 15,21.4 24,19 25,10.6 		"/>
		<path id="XMLID_42_" class="st0" d="M15,22.4c-0.3,0-0.7-0.2-0.9-0.5l-3.9-6.6C10,15,10,14.5,10.3,14.2l6.1-6.6
			c0.3-0.3,0.7-0.4,1-0.3l7.8,2.4c0.5,0.1,0.8,0.6,0.7,1.1l-1,8.4c0,0.4-0.3,0.7-0.7,0.9l-9,2.4C15.1,22.4,15.1,22.4,15,22.4z
			 M12.3,15l3.2,5.3l7.6-2l0.8-6.9l-6.4-2L12.3,15z"/>
	</g>
	<g id="XMLID_36_">
		<polygon id="XMLID_40_" class="st0" points="13.2,31.1 20.2,37.3 19,42.8 11.1,41.8 8.2,33.8 		"/>
		<path id="XMLID_37_" class="st0" d="M19,43.8c0,0-0.1,0-0.1,0l-7.9-1.1c-0.4-0.1-0.7-0.3-0.8-0.7l-2.9-7.9c-0.2-0.5,0-1,0.5-1.2
			l5-2.8c0.4-0.2,0.8-0.2,1.2,0.1l7,6.2c0.3,0.2,0.4,0.6,0.3,0.9L20,43.1C19.9,43.5,19.5,43.8,19,43.8z M11.8,40.9l6.4,0.9l0.9-4.1
			l-6-5.4l-3.6,2L11.8,40.9z"/>
	</g>
	<g id="XMLID_31_">
		<polygon id="XMLID_35_" class="st0" points="31.2,24.8 29.9,33.9 35.8,37.8 41.8,31.3 39.1,23.2 		"/>
		<path id="XMLID_32_" class="st0" d="M35.8,38.8c-0.2,0-0.4-0.1-0.5-0.2l-6-3.8c-0.3-0.2-0.5-0.6-0.4-1l1.3-9.1
			c0.1-0.4,0.4-0.8,0.8-0.8l7.9-1.6c0.5-0.1,1,0.2,1.1,0.7l2.7,8.1c0.1,0.3,0,0.7-0.2,1l-6,6.5C36.4,38.7,36.1,38.8,35.8,38.8z
			 M31,33.4l4.7,3l5-5.4l-2.2-6.7l-6.4,1.3L31,33.4z"/>
	</g>
	<g id="XMLID_26_">
		<polygon id="XMLID_30_" class="st0" points="44.7,14.1 40.6,14.8 33.5,7.8 33.5,3.1 40.3,7.8 		"/>
		<path id="XMLID_27_" class="st0" d="M40.6,15.8c-0.3,0-0.5-0.1-0.7-0.3l-7-7c-0.2-0.2-0.3-0.4-0.3-0.7V3.1c0-0.4,0.2-0.7,0.5-0.9
			c0.3-0.2,0.7-0.1,1,0.1L40.9,7C41,7,41.1,7.1,41.1,7.2l4.4,6.3c0.2,0.3,0.2,0.6,0.1,1S45.3,15,44.9,15l-4.2,0.8
			C40.7,15.8,40.6,15.8,40.6,15.8z M34.5,7.4l6.4,6.4l2.1-0.4l-3.4-4.8L34.5,5V7.4z"/>
	</g>
	
		<rect id="XMLID_25_" x="5.8" y="11" transform="matrix(0.1142 0.9935 -0.9935 0.1142 21.2351 6.8505)" class="st0" width="2" height="8.6"/>
	
		<rect id="XMLID_24_" x="-0.5" y="29.2" transform="matrix(0.7015 0.7126 -0.7126 0.7015 22.881 5.7301)" class="st0" width="10.3" height="2"/>
	
		<rect id="XMLID_23_" x="13.1" y="21.4" transform="matrix(0.9833 0.1821 -0.1821 0.9833 5.0172 -2.126)" class="st0" width="2" height="9.8"/>
	
		<rect id="XMLID_22_" x="24" y="30.6" transform="matrix(0.3641 0.9313 -0.9313 0.3641 49.2574 -0.4577)" class="st0" width="2" height="10.5"/>
	
		<rect id="XMLID_21_" x="23" y="20.9" transform="matrix(0.7793 0.6266 -0.6266 0.7793 19.8359 -12.458)" class="st0" width="9.3" height="2"/>
	
		<rect id="XMLID_20_" x="38.9" y="14.8" transform="matrix(0.9858 0.168 -0.168 0.9858 3.7652 -6.4275)" class="st0" width="2" height="8.5"/>
	
		<rect id="XMLID_19_" x="28.3" y="4.7" transform="matrix(0.3164 0.9486 -0.9486 0.3164 28.7457 -21.4429)" class="st0" width="2" height="9"/>
	
		<rect id="XMLID_18_" x="13.6" y="4.3" transform="matrix(0.1824 0.9832 -0.9832 0.1824 18.7957 -11.9416)" class="st0" width="5.9" height="2"/>
	
		<rect id="XMLID_17_" x="34.6" y="37.8" transform="matrix(0.9961 8.789381e-02 -8.789381e-02 0.9961 3.7327 -2.9681)" class="st0" width="2" height="6.3"/>
	<rect id="XMLID_16_" x="41.8" y="30.3" class="st0" width="4" height="2"/>
	
		<rect id="XMLID_15_" x="18" y="43.9" transform="matrix(0.6511 0.759 -0.759 0.6511 41.344 -9.370103e-02)" class="st0" width="5.5" height="2"/>
</g>
</svg>
