<?xml version="1.0" encoding="utf-8"?>
<!-- Generator: Adobe Illustrator 19.1.0, SVG Export Plug-In . SVG Version: 6.00 Build 0)  -->
<!DOCTYPE svg PUBLIC "-//W3C//DTD SVG 1.1//EN" "http://www.w3.org/Graphics/SVG/1.1/DTD/svg11.dtd">
<svg version="1.1" id="Layer_1" xmlns="http://www.w3.org/2000/svg" xmlns:xlink="http://www.w3.org/1999/xlink" x="0px" y="0px"
	 viewBox="0 0 47 48" style="enable-background:new 0 0 47 48;" xml:space="preserve">
<style type="text/css">
	.st0{fill:#00FF00;}
</style>
<g id="XMLID_64_">
	<path id="XMLID_81_" class="st0" d="M39,15c-3.5,0-6.3-2.8-6.3-6.3s2.8-6.3,6.3-6.3s6.3,2.8,6.3,6.3S42.4,15,39,15z M39,4.5
		c-2.4,0-4.3,1.9-4.3,4.3S36.6,13,39,13s4.3-1.9,4.3-4.3S41.3,4.5,39,4.5z"/>
	<path id="XMLID_78_" class="st0" d="M3.9,45c-1.5,0-2.8-1.1-3.1-2.6c-0.1-0.8,0-1.7,0.5-2.3s1.2-1.1,2-1.3l0,0
		c12.9-2.3,14-13.3,14-13.7l0-0.2l0.8-2.6L26,14c-1.8-1.7-3.3-2.4-3.9-2.2c-0.3,0.1-1.4,1.1-2,4.9c-0.1,0.8-0.6,1.5-1.3,2
		c-0.7,0.5-1.5,0.7-2.3,0.5c-1.7-0.3-2.8-1.9-2.6-3.6c1-5.7,3.2-9.1,6.6-10c5.8-1.5,11.6,5.6,12.2,6.4l0.2,0.3l2.6,5.1l-0.1,0.9
		c-0.2,2.2,0.2,3.8,1,4.3c1.3,0.9,4.6,0.1,6.1-0.6c1.6-0.7,3.4,0,4.1,1.6c0.7,1.6,0,3.4-1.6,4.1c-0.6,0.3-3.6,1.5-6.9,1.5
		c-2.1,0-3.9-0.5-5.4-1.5c-1.3-0.9-2.3-2.2-2.9-3.9l-2.1,2.4c4.5,2.3,6.6,5,6.4,8.1c-0.4,5.9-9.5,8.9-13.4,10
		c-0.8,0.2-1.7,0.1-2.4-0.3c-0.7-0.4-1.2-1.1-1.4-1.9c-0.4-1.7,0.6-3.4,2.2-3.8c4.5-1.2,8.3-3.3,8.7-4.2c-0.2-0.3-1.2-1.6-5.7-3.5
		C20.5,35.6,15.9,43,4.4,45C4.2,45,4.1,45,3.9,45z M3.7,40.8C3.4,40.9,3.1,41,3,41.3s-0.2,0.5-0.2,0.8c0.1,0.6,0.7,1,1.3,0.9
		c11.3-2,15.3-9.6,16.7-14l0.4-1.2l1.1,0.7c0.1,0,0.1,0.1,0.2,0.1c6.7,2.6,7.6,4.6,7.6,5.6c-0.2,2.9-7.6,5.4-10.3,6.1
		c-0.6,0.2-1,0.8-0.8,1.4c0.1,0.3,0.3,0.5,0.5,0.7c0.3,0.2,0.6,0.2,0.9,0.1C26,41,32,38.1,32.3,34.4c0.1-2.5-2-4.7-6.5-6.8L24.6,27
		l6.5-7.2l0.4,2c0.4,2,1.3,3.5,2.6,4.4c1.1,0.8,2.5,1.2,4.2,1.2c2.9,0,5.7-1.2,6-1.4c0.6-0.3,0.8-0.9,0.6-1.5
		c-0.3-0.6-0.9-0.8-1.5-0.6c-0.1,0-5.3,2.3-8,0.4c-1.4-1-2-3-1.8-6.1l0-0.3l-2.4-4.6c-0.2-0.3-5.5-6.9-10.2-5.7
		c-2.6,0.7-4.3,3.5-5.2,8.4c-0.1,0.6,0.3,1.2,0.9,1.3c0.3,0,0.6,0,0.8-0.2c0.2-0.2,0.4-0.4,0.5-0.7c0.5-2.7,1.4-6,3.5-6.5
		c2.2-0.5,5,1.9,6.5,3.4l0.7,0.7L20,23.4l-0.6,2C19.2,26.8,17.5,38.4,3.7,40.8L3.7,40.8z"/>
	<rect id="XMLID_77_" x="1.7" y="22.5" class="st0" width="17.1" height="2"/>
	<rect id="XMLID_76_" x="4.8" y="14.9" class="st0" width="10.1" height="2"/>
	<rect id="XMLID_72_" x="7.4" y="7.8" class="st0" width="10.2" height="2"/>
	<rect id="XMLID_65_" y="29.9" class="st0" width="16.5" height="2"/>
</g>
</svg>
