<?xml version="1.0" encoding="utf-8"?>
<!-- Generator: Adobe Illustrator 19.1.0, SVG Export Plug-In . SVG Version: 6.00 Build 0)  -->
<!DOCTYPE svg PUBLIC "-//W3C//DTD SVG 1.1//EN" "http://www.w3.org/Graphics/SVG/1.1/DTD/svg11.dtd">
<svg version="1.1" id="Layer_1" xmlns="http://www.w3.org/2000/svg" xmlns:xlink="http://www.w3.org/1999/xlink" x="0px" y="0px"
	 viewBox="0 0 47.8 48" style="enable-background:new 0 0 47.8 48;" xml:space="preserve">
<style type="text/css">
	.st0{fill:#00FF00;}
</style>
<g id="XMLID_58_">
	<path id="XMLID_61_" class="st0" d="M23.9,48C10.7,48,0,37.3,0,24.1S10.7,0.2,23.9,0.2S47.8,11,47.8,24.1S37,48,23.9,48z M23.9,2.2
		C11.8,2.2,2,12.1,2,24.1S11.8,46,23.9,46s21.9-9.8,21.9-21.9S36,2.2,23.9,2.2z"/>
	<path id="XMLID_60_" class="st0" d="M35.2,45l-1.7-1c2.4-4.1,0.4-9.1-1.8-12.5c-1.9-3-4.3-7.2-5.3-9.9c-1.6-4.3-1.6-8.1,0.2-11.1
		c2.9-5.1,9.3-6.3,9.6-6.4l0.4,2c-0.1,0-5.8,1.1-8.2,5.4c-1.4,2.5-1.4,5.7,0,9.5c1,2.6,3.3,6.7,5.1,9.6C37,36,37.6,41.1,35.2,45z"/>
	<path id="XMLID_59_" class="st0" d="M4.3,34.8l-1.8-0.9C10.6,18.6,6.9,8.3,6.9,8.2l1.9-0.7C8.9,7.9,12.8,18.6,4.3,34.8z"/>
</g>
</svg>
