<?xml version="1.0" encoding="utf-8"?>
<!-- Generator: Adobe Illustrator 19.1.0, SVG Export Plug-In . SVG Version: 6.00 Build 0)  -->
<!DOCTYPE svg PUBLIC "-//W3C//DTD SVG 1.1//EN" "http://www.w3.org/Graphics/SVG/1.1/DTD/svg11.dtd">
<svg version="1.1" id="Layer_1" xmlns="http://www.w3.org/2000/svg" xmlns:xlink="http://www.w3.org/1999/xlink" x="0px" y="0px"
	 viewBox="0 0 61.4 48" style="enable-background:new 0 0 61.4 48;" xml:space="preserve">
<style type="text/css">
	.st0{fill:#00FF00;}
</style>
<path id="XMLID_175_" class="st0" d="M21.6,15.1c-2.6,0-4.7-2.1-4.7-4.7s2.1-4.7,4.7-4.7s4.7,2.1,4.7,4.7S24.2,15.1,21.6,15.1z
	 M21.6,7.4c-1.6,0-2.9,1.3-2.9,2.9s1.3,2.9,2.9,2.9c1.6,0,2.9-1.3,2.9-2.9S23.3,7.4,21.6,7.4z"/>
<path id="XMLID_172_" class="st0" d="M21.4,42.3c-2.5,0-3.1-1.6-3.4-3.1c-0.2-1.3-0.4-4.1-0.5-5.3l-3-1.4c0,0.7-0.1,1.6-0.1,1.9l0,0
	c-0.1,1.5-1.4,3-2.2,3.6c-0.6,0.4-5.7,3.1-6.8,3.7c-1,0.6-3.3,1.3-4.8-0.8c-0.5-0.7-0.7-1.5-0.6-2.3c0.3-1.5,1.6-2.3,1.8-2.4l0,0
	L7.6,33v-4c0-2.5,0.9-3.9,1.6-5c0.1-0.1,0.1-0.2,0.2-0.3c0.2-0.2,3.4-4.9,4.2-6c1-1.3,2.9-2,4.2-2c0.6,0,3.7,0.1,5,2.5
	c0.7,1.3,1.7,3.1,2.1,3.9l5.4,0.1c1,0,2.7,0.7,2.8,2.9c0,0.8-0.2,1.5-0.7,2c-0.8,0.9-2,0.9-2.1,0.9c-0.2,0-5.1,0.2-6.8,0.1
	c-1.7-0.1-2.5-1-2.8-1.6l-1.1-1.9l-2.2,2.7c1.3,0.5,3,1.2,3.7,1.4c1.5,0.4,2.4,1.4,2.5,2.8c0.1,1,0.6,7.2,0.6,7.5l0,0
	c0.1,1.3-0.6,3.3-2.8,3.4C21.6,42.3,21.5,42.3,21.4,42.3z M12.8,29.7l6.3,3l0,0.5c0,0,0.3,4.2,0.5,5.7c0.2,1.4,0.5,1.7,1.8,1.7
	c1.1-0.1,1.1-1.3,1.1-1.6c0-0.4-0.5-6.5-0.6-7.4c-0.1-0.7-0.4-1.1-1.2-1.3c-1.2-0.3-4.9-1.9-5-1.9l-1.1-0.5l5.3-6.5l2.5,4.3
	c0.1,0.1,0.3,0.5,1.2,0.5c1.6,0.1,6.6-0.1,6.7-0.1c0.4,0,1.1-0.2,1.1-1c0-1.1-0.9-1.2-1.1-1.2l-6.4-0.1l-0.2-0.4
	c0,0-1.5-2.6-2.4-4.3c-0.9-1.6-3.2-1.6-3.5-1.6c-0.8,0-2.2,0.5-2.8,1.3c-0.8,1.1-4.1,5.9-4.1,6c-0.1,0.1-0.1,0.2-0.2,0.3
	c-0.7,1-1.3,2-1.3,4V34l-6.6,3.6c-0.2,0.2-0.9,0.7-1,1.3c-0.1,0.3,0,0.6,0.3,1c0.9,1.3,2.3,0.4,2.5,0.3l0.1,0
	c2.9-1.6,6.2-3.4,6.6-3.6c0.5-0.3,1.4-1.3,1.5-2.2c0-0.7,0.1-3.1,0.1-3.2L12.8,29.7z"/>
<path id="XMLID_169_" class="st0" d="M39.7,15.1c-2.6,0-4.7-2.1-4.7-4.7s2.1-4.7,4.7-4.7s4.7,2.1,4.7,4.7S42.3,15.1,39.7,15.1z
	 M39.7,7.4c-1.6,0-2.9,1.3-2.9,2.9s1.3,2.9,2.9,2.9s2.9-1.3,2.9-2.9S41.4,7.4,39.7,7.4z"/>
<path id="XMLID_166_" class="st0" d="M40,42.3c-0.1,0-0.2,0-0.3,0c-1-0.1-1.6-0.5-1.9-0.9c-0.8-1-0.7-2.4-0.6-2.6l0.6-5.5
	c0.1-1.3,0.8-3.1,3.8-4.7c0.6-0.4,1.8-1,2.5-1.4L42.9,25l-0.5,1.7l-0.2,0.2c-0.1,0.1-1.5,1.3-2.7,2.2c-1.2,0.9-4.1,2.9-4.4,3.1
	c-0.9,0.7-2.7,1.2-3.9-0.3c-0.4-0.5-0.6-1.1-0.5-1.7c0.2-1.4,1.7-2.6,1.9-2.7l5.1-3.6c0-1.2,0.1-4,0.9-5.6c1.3-2.4,4.4-2.5,5-2.5
	c1.3,0,3.3,0.7,4.2,2c0.8,1.1,4,5.8,4.2,6c0.1,0.1,0.1,0.2,0.2,0.3c0.7,1.1,1.6,2.5,1.6,5v4l5.7,3.1c0.2,0.1,1.5,1,1.8,2.4
	c0.2,0.8,0,1.6-0.6,2.3c-1.5,2.1-3.8,1.5-4.8,0.8c-1.1-0.6-6.2-3.3-6.8-3.7c-0.8-0.6-2.1-2-2.2-3.6l0,0c0-0.3,0-1.1-0.1-1.9l-3,1.5
	c-0.1,1.1-0.3,3.9-0.5,5.1C43.1,40.8,42.5,42.3,40,42.3z M42.4,20.3l4,7.5l-0.7,0.4c0,0-2.3,1.3-3.3,1.9c-1.8,1-2.8,2.1-2.9,3.3l0,0
	l-0.6,5.6c0,0.2,0,0.9,0.2,1.2c0.1,0.1,0.2,0.2,0.6,0.2c1.3,0.1,1.6-0.3,1.8-1.7c0.3-1.5,0.5-5.4,0.5-5.5l0-0.5l6.4-3.3l0.1,1.4
	c0,0.1,0.1,2.5,0.1,3.2c0.1,0.9,1,1.9,1.5,2.2c0.3,0.2,3.7,2,6.6,3.6l0.1,0c0.3,0.2,1.6,0.9,2.5-0.3c0.2-0.3,0.3-0.7,0.3-1
	c-0.1-0.7-0.9-1.2-1-1.3L52,34V29c0-2-0.7-3-1.3-4c-0.1-0.1-0.1-0.2-0.2-0.3c0,0-3.3-4.9-4.1-6c-0.6-0.9-2-1.3-2.8-1.3
	c-0.3,0-2.6,0-3.5,1.6c-0.7,1.3-0.8,4.2-0.7,5.2l0,0.5l-5.8,4.2c-0.3,0.3-1.1,1-1.1,1.5c0,0.1,0,0.2,0.1,0.3c0.6,0.7,1.4,0.2,1.5,0
	l0,0c0,0,3.2-2.1,4.3-3c0.9-0.7,2-1.6,2.4-2L42.4,20.3z"/>
<path id="XMLID_149_" class="st0" d="M38.6,22.5h-8.4c-1.8,0-3.7-0.9-3.7-2.9c0-0.9,0.4-2.8,3.9-2.8H40v1.8h-9.6
	c-2.1,0-2.1,0.8-2.1,1.1c0,1.1,1.6,1.1,1.9,1.1h8.4V22.5z"/>
</svg>
